<?xml version="1.0" encoding="UTF-8"?>
<!DOCTYPE svg PUBLIC "-//W3C//DTD SVG 1.1//EN" "http://www.w3.org/Graphics/SVG/1.1/DTD/svg11.dtd">
<svg xmlns="http://www.w3.org/2000/svg" version="1.1" width="577px" height="577px" style="shape-rendering:geometricPrecision; text-rendering:geometricPrecision; image-rendering:optimizeQuality; fill-rule:evenodd; clip-rule:evenodd" xmlns:xlink="http://www.w3.org/1999/xlink">
<g><path style="opacity:1" fill="#fefefe" d="M -0.5,-0.5 C 191.833,-0.5 384.167,-0.5 576.5,-0.5C 576.5,84.1667 576.5,168.833 576.5,253.5C 570.589,234.525 557.589,226.025 537.5,228C 528.32,232.564 526.153,239.397 531,248.5C 538.628,254.46 545.962,260.793 553,267.5C 558.187,274.335 559.854,282.002 558,290.5C 556.224,295.148 554.89,299.815 554,304.5C 565.599,294.631 573.099,282.298 576.5,267.5C 576.5,370.5 576.5,473.5 576.5,576.5C 384.167,576.5 191.833,576.5 -0.5,576.5C -0.5,488.167 -0.5,399.833 -0.5,311.5C 4.46638,331.292 17.133,343.126 37.5,347C 44.3667,348.034 51.0333,347.367 57.5,345C 65.8297,337.67 73.8297,330.003 81.5,322C 74.4558,323.378 67.2891,324.212 60,324.5C 44.6625,324.667 36.4958,317 35.5,301.5C 41.955,275.11 57.6217,267.776 82.5,279.5C 85.2354,271.626 87.5688,263.626 89.5,255.5C 78.8917,252.484 68.0584,250.818 57,250.5C 32.1051,252.047 14.1051,264.047 3,286.5C 1.69123,290.254 0.524565,293.921 -0.5,297.5C -0.5,198.167 -0.5,98.8333 -0.5,-0.5 Z"/></g>
<g><path style="opacity:1" fill="#050505" d="M 576.5,253.5 C 576.5,258.167 576.5,262.833 576.5,267.5C 573.099,282.298 565.599,294.631 554,304.5C 554.89,299.815 556.224,295.148 558,290.5C 559.854,282.002 558.187,274.335 553,267.5C 545.962,260.793 538.628,254.46 531,248.5C 526.153,239.397 528.32,232.564 537.5,228C 557.589,226.025 570.589,234.525 576.5,253.5 Z"/></g>
<g><path style="opacity:1" fill="#040404" d="M 325.5,287.5 C 322.359,286.679 319.025,286.179 315.5,286C 316.056,285.617 316.389,285.117 316.5,284.5C 321.117,278.043 325.951,271.71 331,265.5C 339.877,232.812 360.377,221.812 392.5,232.5C 390.769,238.192 388.936,243.859 387,249.5C 381.833,249.116 376.667,249.616 371.5,251C 366.629,254.248 363.963,258.748 363.5,264.5C 368.5,264.5 373.5,264.5 378.5,264.5C 376.836,271.827 375.169,279.161 373.5,286.5C 367.833,286.5 362.167,286.5 356.5,286.5C 351.19,305.738 346.19,325.071 341.5,344.5C 331.5,344.5 321.5,344.5 311.5,344.5C 315.885,325.408 320.552,306.408 325.5,287.5 Z"/></g>
<g><path style="opacity:1" fill="#030303" d="M -0.5,311.5 C -0.5,306.833 -0.5,302.167 -0.5,297.5C 0.524565,293.921 1.69123,290.254 3,286.5C 14.1051,264.047 32.1051,252.047 57,250.5C 68.0584,250.818 78.8917,252.484 89.5,255.5C 87.5688,263.626 85.2354,271.626 82.5,279.5C 57.6217,267.776 41.955,275.11 35.5,301.5C 36.4958,317 44.6625,324.667 60,324.5C 67.2891,324.212 74.4558,323.378 81.5,322C 73.8297,330.003 65.8297,337.67 57.5,345C 51.0333,347.367 44.3667,348.034 37.5,347C 17.133,343.126 4.46638,331.292 -0.5,311.5 Z"/></g>
<g><path style="opacity:1" fill="#030303" d="M 124.5,261.5 C 155.743,261.242 170.91,276.575 170,307.5C 163.017,331.761 146.85,344.761 121.5,346.5C 103.374,345.86 90.8736,337.193 84,320.5C 79.269,297.792 86.769,280.292 106.5,268C 112.294,264.905 118.294,262.739 124.5,261.5 Z"/></g>
<g><path style="opacity:1" fill="#040404" d="M 262.5,273.5 C 262.5,277.5 262.5,281.5 262.5,285.5C 256.723,304.932 251.39,324.599 246.5,344.5C 236.5,344.5 226.5,344.5 216.5,344.5C 220.351,328.077 224.517,311.744 229,295.5C 230.378,291.013 229.212,287.513 225.5,285C 220.581,284.198 215.748,284.365 211,285.5C 205.048,304.311 199.881,323.311 195.5,342.5C 190.412,343.143 185.246,343.476 180,343.5C 174.784,343.494 169.951,342.827 165.5,341.5C 171.707,315.67 178.374,290.004 185.5,264.5C 195.5,264.5 205.5,264.5 215.5,264.5C 215.5,265.833 215.5,267.167 215.5,268.5C 213.734,272.239 212.901,276.239 213,280.5C 219.44,272.062 227.606,265.896 237.5,262C 245.9,260.475 253.4,262.309 260,267.5C 261.122,269.407 261.955,271.407 262.5,273.5 Z"/></g>
<g><path style="opacity:1" fill="#030303" d="M 315.5,283.5 C 314.566,284.568 314.232,285.901 314.5,287.5C 308.966,306.103 303.632,324.77 298.5,343.5C 288.442,344.14 278.775,343.473 269.5,341.5C 273.657,325.206 277.657,308.873 281.5,292.5C 282.235,288.82 280.901,286.32 277.5,285C 273.235,283.265 268.901,283.098 264.5,284.5C 263.494,284.062 263.494,283.396 264.5,282.5C 271.802,270.606 282.302,263.606 296,261.5C 310.471,261.803 316.971,269.137 315.5,283.5 Z"/></g>
<g><path style="opacity:1" fill="#040404" d="M 542.5,309.5 C 523.5,309.5 504.5,309.5 485.5,309.5C 485.205,311.735 485.539,313.735 486.5,315.5C 486.781,317.963 487.781,320.13 489.5,322C 499.544,327.121 510.21,328.788 521.5,327C 527.04,326.033 532.373,324.7 537.5,323C 521.44,344.465 500.773,350.798 475.5,342C 463.312,334.983 456.645,324.483 455.5,310.5C 437.167,310.5 418.833,310.5 400.5,310.5C 400.104,318.95 404.104,324.117 412.5,326C 420.111,327.478 427.778,327.812 435.5,327C 441.04,326.033 446.373,324.7 451.5,323C 438.228,341.653 420.228,348.986 397.5,345C 379.639,338.609 370.306,325.943 369.5,307C 373.517,279.652 389.35,264.486 417,261.5C 438.215,262.068 451.881,272.402 458,292.5C 471.326,266.28 492.159,257.113 520.5,265C 539.438,274.043 546.771,288.877 542.5,309.5 Z"/></g>
<g><path style="opacity:1" fill="#c7c7c7" d="M 185.5,264.5 C 195.653,263.506 205.986,263.172 216.5,263.5C 216.784,265.415 216.451,267.081 215.5,268.5C 215.5,267.167 215.5,265.833 215.5,264.5C 205.5,264.5 195.5,264.5 185.5,264.5 Z"/></g>
<g><path style="opacity:1" fill="#5b5b5b" d="M 262.5,273.5 C 263.167,276.5 263.833,279.5 264.5,282.5C 263.494,283.396 263.494,284.062 264.5,284.5C 264.158,285.338 263.492,285.672 262.5,285.5C 262.5,281.5 262.5,277.5 262.5,273.5 Z"/></g>
<g><path style="opacity:1" fill="#f9f9f9" d="M 127.5,281.5 C 134.237,281.06 138.737,284.06 141,290.5C 143.543,304.889 139.043,316.389 127.5,325C 117.578,327.775 112.078,323.942 111,313.5C 109.909,299.346 115.409,288.68 127.5,281.5 Z"/></g>
<g><path style="opacity:1" fill="#f6f6f6" d="M 412.5,282.5 C 423.669,279.898 429.335,284.232 429.5,295.5C 420.833,295.5 412.167,295.5 403.5,295.5C 404.55,289.788 407.55,285.455 412.5,282.5 Z"/></g>
<g><path style="opacity:1" fill="#f7f7f7" d="M 498.5,282.5 C 509.459,280.28 514.792,284.614 514.5,295.5C 505.808,295.831 497.141,295.498 488.5,294.5C 490.786,289.554 494.12,285.554 498.5,282.5 Z"/></g>
<g><path style="opacity:1" fill="#787878" d="M 315.5,283.5 C 315.5,284.167 315.833,284.5 316.5,284.5C 316.389,285.117 316.056,285.617 315.5,286C 319.025,286.179 322.359,286.679 325.5,287.5C 321.833,287.5 318.167,287.5 314.5,287.5C 314.232,285.901 314.566,284.568 315.5,283.5 Z"/></g>
<g><path style="opacity:1" fill="#6f6f6f" d="M 542.5,309.5 C 524.007,310.497 505.341,310.83 486.5,310.5C 486.5,312.167 486.5,313.833 486.5,315.5C 485.539,313.735 485.205,311.735 485.5,309.5C 504.5,309.5 523.5,309.5 542.5,309.5 Z"/></g>
<g><path style="opacity:1" fill="#616161" d="M 165.5,341.5 C 169.951,342.827 174.784,343.494 180,343.5C 185.246,343.476 190.412,343.143 195.5,342.5C 185.554,344.475 175.221,345.142 164.5,344.5C 164.263,343.209 164.596,342.209 165.5,341.5 Z"/></g>
<g><path style="opacity:1" fill="#606060" d="M 269.5,341.5 C 278.775,343.473 288.442,344.14 298.5,343.5C 288.681,344.494 278.681,344.827 268.5,344.5C 268.263,343.209 268.596,342.209 269.5,341.5 Z"/></g>
</svg>
