<?xml version="1.0" encoding="utf-8"?>
<!-- Generator: Adobe Illustrator 26.5.0, SVG Export Plug-In . SVG Version: 6.00 Build 0)  -->
<svg version="1.1" id="Layer_1" xmlns="http://www.w3.org/2000/svg" xmlns:xlink="http://www.w3.org/1999/xlink" x="0px" y="0px"
	 viewBox="0 0 512 512" style="enable-background:new 0 0 512 512;" xml:space="preserve">
<style type="text/css">
	.st0{fill:#D40000;}
</style>
<g id="layer1" transform="translate(-1194.641,-1344.376)">
	<g id="g25441" transform="translate(7.086572,7.086332)">
		<path id="path274" class="st0" d="M1244.57,1666.99h-57.17l28.59-49.49h57.17"/>
		<path id="path276" class="st0" d="M1301.6,1666.99h57.03l-28.59-49.49h-57.03"/>
		<path id="path278" class="st0" d="M1301.6,1568.01l-28.59-49.49l-28.59,49.49l28.59,49.49"/>
		<path id="path280" d="M1384.38,1645.94h22.9v-8.25h-22.9v-10.24h25.74v-8.25h-35.41v47.93h36.12v-8.25h-26.45"/>
		<path id="path282" d="M1383.81,1575.54l10.1,35.56h9.39l10.1-35.56v35.56h9.1v-47.79h-13.94l-9.96,33.56l-9.96-33.56h-13.94v47.79
			h9.1"/>
		<path id="path284" d="M1594.3,1611.1h9.67v-47.79h-9.67V1611.1z"/>
		<path id="path286" d="M1602.26,1666.99h9.67v-47.93h-9.67V1666.99z"/>
		<path id="path288" d="M1689.73,1611.1h9.67v-47.79h-9.67V1611.1z"/>
		<path id="path290" d="M1426.19,1611.1h9.67v-47.79h-9.67V1611.1z"/>
		<path id="path292" d="M1676.36,1581.94h-19.2v-18.63h-9.53v47.79h9.53v-20.91h19.2v20.91h9.39v-47.79h-9.39"/>
		<path id="path294" d="M1450.23,1611.1h9.81v-39.54h11.66v-8.25h-33.14v8.25h11.8"/>
		<path id="path296" d="M1537.98,1666.99h9.81v-39.54h11.8v-8.25h-33.14v8.25h11.66"/>
		<path id="path298" d="M1531.58,1612.52c12.23,0,19.06-5.55,19.06-16.36v-32.85h-9.67v33.85c0,4.12-3.41,7.54-9.39,7.54
			c-7.4,0-9.53-4.12-9.53-7.54v-33.85h-9.39v32.85C1512.66,1607.69,1519.77,1612.52,1531.58,1612.52"/>
		<path id="path300" d="M1458.62,1645.94h22.76v-8.25h-22.76v-10.24h25.6v-8.25h-35.27v47.93h36.12v-8.25h-26.45"/>
		<path id="path302" d="M1575.67,1570.85c2.56,0,5.55,2.42,5.55,5.69c0,2.84-2.13,5.97-6.26,5.97h-11.52v-11.66H1575.67z
			 M1574.81,1603.99h-11.38v-13.94h11.24c4.12,0,7.4,2.28,7.4,6.97C1582.07,1600.86,1579.08,1603.99,1574.81,1603.99
			 M1563.86,1611.1h13.94c9.1,0,14.36-5.4,14.36-12.94c0-6.12-4.41-11.24-9.24-12.52c4.27-1,7.54-5.4,7.54-10.67
			c0-7.11-5.12-11.8-14.79-11.8h-21.62v47.79l0,0"/>
		<path id="path304" d="M1571.68,1640.4v-13.08h11.66c3.98,0,6.54,2.7,6.54,6.54c0,2.7-2.28,6.54-6.26,6.54H1571.68z
			 M1590.88,1644.09c4.12-1.28,8.39-4.98,8.39-11.52c0-8.53-5.69-13.37-15.5-13.37h-21.9v47.79h9.81v-18.92h8.11
			c4.98,0,7.68,2.56,8.39,5.97c0.85,3.7,0.71,9.39,1.71,12.8h9.81c-0.85-3.7-1.56-8.68-1.85-12.52
			C1597.71,1647.93,1594.16,1645.23,1590.88,1644.09"/>
		<path id="path306" d="M1423.63,1619.06h-9.67v47.93h32.14v-8.25h-22.47"/>
		<path id="path308" d="M1487.92,1590.9c7.68,1.28,12.09,2.84,12.09,7.4c0,3.13-2.99,6.12-9.53,6.12c-6.54,0-9.81-3.7-9.81-7.96
			h-9.24c0,8.39,5.4,15.93,19.48,15.93c13.23,0,19.2-7.11,19.2-15.22c0-7.54-4.98-12.37-13.8-14.08c-8.53-1.71-14.36-1.99-14.36-7.4
			c0-3.7,3.27-5.83,8.53-5.83c5.4,0,8.68,2.7,8.68,7.25h9.39c0-7.54-5.69-15.36-18.35-15.36c-8.82,0-17.78,5.12-17.78,14.51
			C1472.41,1584.36,1478.1,1589.2,1487.92,1590.9"/>
		<path id="path310" d="M1622.74,1590.9c7.82,1.28,12.23,2.84,12.23,7.4c0,3.13-3.13,6.12-9.53,6.12c-6.54,0-9.81-3.7-9.81-7.96
			h-9.24c0,8.39,5.26,15.93,19.48,15.93c13.23,0,19.2-7.11,19.2-15.22c0-7.54-4.98-12.37-13.94-14.08
			c-8.39-1.71-14.36-1.99-14.36-7.4c0-3.7,3.41-5.83,8.68-5.83c5.55,0,8.82,2.7,8.82,7.25h9.39c0-7.54-5.69-15.36-18.35-15.36
			c-8.82,0-17.92,5.12-17.92,14.51C1607.24,1584.36,1613.07,1589.2,1622.74,1590.9"/>
		<path id="path312" d="M1506.83,1659.6c-7.68,0-12.23-7.68-12.23-16.78s4.41-16.78,12.23-16.78c5.97,0,9.1,3.7,10.24,8.25h10.1
			c-1.71-9.39-8.96-16.36-20.48-16.36c-14.65,0-22.19,11.24-22.19,25.03c0,13.8,7.82,25.03,22.19,25.03
			c11.52,0,19.2-6.68,20.48-16.92h-10.1C1515.79,1655.9,1512.66,1659.6,1506.83,1659.6"/>
		<path id="path314" d="M1636.68,1659.6c-7.82,0-12.37-7.68-12.37-16.78s4.41-16.78,12.37-16.78c5.83,0,8.96,3.7,10.24,8.25h9.96
			c-1.71-9.39-8.96-16.36-20.48-16.36c-14.65,0-22.04,11.24-22.04,25.03c0,13.8,7.68,25.03,22.04,25.03
			c11.52,0,19.2-6.68,20.62-16.92h-10.1C1645.5,1655.9,1642.37,1659.6,1636.68,1659.6"/>
	</g>
</g>
</svg>
